<svg width="35" height="35" viewBox="0 0 35 35" fill="none" xmlns="http://www.w3.org/2000/svg">
<path fill-rule="evenodd" clip-rule="evenodd" d="M23 18C23 14.4735 20.3926 11.5561 17 11.0709V10C17 9.44772 16.5523 9 16 9C15.4477 9 15 9.44772 15 10V11.0709C11.6074 11.5561 9 14.4735 9 18V22V22.5H7C6.44772 22.5 6 22.9477 6 23.5C6 24.0523 6.44772 24.5 7 24.5H25C25.5523 24.5 26 24.0523 26 23.5C26 22.9477 25.5523 22.5 25 22.5H23V22V18ZM21 18V22H11V18C11 15.2386 13.2388 13 16 13C18.7612 13 21 15.2386 21 18ZM18.1211 28.1213C18.6841 27.5587 19 26.7957 19 26H16H13C13 26.7957 13.3159 27.5587 13.8789 28.1213C14.4414 28.684 15.2046 29 16 29C16.7954 29 17.5586 28.6839 18.1211 28.1213Z" fill="white"/>
<circle cx="26" cy="9" r="9" fill="#B9090B"/>
<path d="M28.66 5.648V6.932L25.528 14H23.836L27.004 7.052H22.672V5.648H28.66Z" fill="white"/>
</svg>
