<svg width="114" height="24" viewBox="0 0 114 24" fill="none" xmlns="http://www.w3.org/2000/svg">
<path d="M6.533 23.297C4.931 23.297 3.671 22.982 2.753 22.352C1.853 21.722 1.223 20.867 0.863 19.787C0.503 18.689 0.323 17.429 0.323 16.007V8.204C0.323 6.71 0.503 5.414 0.863 4.316C1.223 3.218 1.853 2.372 2.753 1.778C3.671 1.184 4.931 0.886998 6.533 0.886998C8.045 0.886998 9.224 1.148 10.07 1.67C10.934 2.174 11.546 2.903 11.906 3.857C12.266 4.811 12.446 5.918 12.446 7.178V9.014H8.612V7.124C8.612 6.512 8.576 5.954 8.504 5.45C8.45 4.946 8.279 4.55 7.991 4.262C7.721 3.956 7.244 3.803 6.56 3.803C5.876 3.803 5.372 3.965 5.048 4.289C4.742 4.595 4.544 5.018 4.454 5.558C4.364 6.08 4.319 6.674 4.319 7.34V16.844C4.319 17.636 4.382 18.293 4.508 18.815C4.634 19.319 4.859 19.706 5.183 19.976C5.525 20.228 5.984 20.354 6.56 20.354C7.226 20.354 7.694 20.201 7.964 19.895C8.252 19.571 8.432 19.148 8.504 18.626C8.576 18.104 8.612 17.519 8.612 16.871V14.9H12.446V16.655C12.446 17.951 12.275 19.103 11.933 20.111C11.591 21.101 10.988 21.884 10.124 22.46C9.278 23.018 8.081 23.297 6.533 23.297ZM21.1681 23.297C19.6201 23.297 18.3871 23.009 17.4691 22.433C16.5511 21.857 15.8941 21.029 15.4981 19.949C15.1021 18.869 14.9041 17.591 14.9041 16.115V7.934C14.9041 6.458 15.1021 5.198 15.4981 4.154C15.8941 3.092 16.5511 2.282 17.4691 1.724C18.3871 1.166 19.6201 0.886998 21.1681 0.886998C22.7521 0.886998 23.9941 1.166 24.8941 1.724C25.8121 2.282 26.4691 3.092 26.8651 4.154C27.2791 5.198 27.4861 6.458 27.4861 7.934V16.142C27.4861 17.6 27.2791 18.869 26.8651 19.949C26.4691 21.011 25.8121 21.839 24.8941 22.433C23.9941 23.009 22.7521 23.297 21.1681 23.297ZM21.1681 20.354C21.8341 20.354 22.3201 20.21 22.6261 19.922C22.9501 19.634 23.1661 19.238 23.2741 18.734C23.3821 18.23 23.4361 17.681 23.4361 17.087V7.016C23.4361 6.404 23.3821 5.855 23.2741 5.369C23.1661 4.883 22.9501 4.505 22.6261 4.235C22.3201 3.947 21.8341 3.803 21.1681 3.803C20.5381 3.803 20.0611 3.947 19.7371 4.235C19.4131 4.505 19.1971 4.883 19.0891 5.369C18.9811 5.855 18.9271 6.404 18.9271 7.016V17.087C18.9271 17.681 18.9721 18.23 19.0621 18.734C19.1701 19.238 19.3861 19.634 19.7101 19.922C20.0341 20.21 20.5201 20.354 21.1681 20.354ZM30.4419 23V1.13H35.5989C37.3809 1.13 38.7669 1.373 39.7569 1.859C40.7649 2.345 41.4759 3.092 41.8899 4.1C42.3219 5.108 42.5379 6.386 42.5379 7.934V15.926C42.5379 17.51 42.3219 18.833 41.8899 19.895C41.4759 20.939 40.7739 21.722 39.7839 22.244C38.8119 22.748 37.4709 23 35.7609 23H30.4419ZM34.4379 20.219H35.6529C36.5709 20.219 37.2279 20.057 37.6239 19.733C38.0199 19.409 38.2629 18.941 38.3529 18.329C38.4429 17.699 38.4879 16.934 38.4879 16.034V7.664C38.4879 6.782 38.4249 6.071 38.2989 5.531C38.1729 4.991 37.9119 4.595 37.5159 4.343C37.1199 4.091 36.4809 3.965 35.5989 3.965H34.4379V20.219ZM45.4712 23V1.13H54.6512V3.938H49.4672V10.229H53.5442V13.01H49.4672V20.246H54.7052V23H45.4712ZM57.02 23V1.13H62.258C63.734 1.13 64.976 1.31 65.984 1.67C67.01 2.012 67.784 2.606 68.306 3.452C68.846 4.298 69.116 5.45 69.116 6.908C69.116 7.79 69.035 8.582 68.873 9.284C68.711 9.986 68.432 10.589 68.036 11.093C67.658 11.579 67.127 11.957 66.443 12.227L69.494 23H65.498L62.852 12.983H61.016V23H57.02ZM61.016 10.472H62.258C63.032 10.472 63.644 10.364 64.094 10.148C64.562 9.914 64.895 9.554 65.093 9.068C65.291 8.564 65.39 7.925 65.39 7.151C65.39 6.053 65.183 5.234 64.769 4.694C64.373 4.136 63.608 3.857 62.474 3.857H61.016V10.472ZM72.1548 23V1.13H81.1458V3.884H76.1508V10.256H80.2278V13.037H76.1508V23H72.1548ZM83.3081 23V1.13H87.3041V20.246H92.5961V23H83.3081ZM94.7804 23V1.13H98.7224V23H94.7804ZM100.731 23L105.132 11.39L100.866 1.13H104.592L107.427 7.907L109.911 1.13H113.367L109.155 12.146L113.691 23H109.965L106.86 15.656L104.16 23H100.731Z" fill="#E50914"/>
</svg>
