<svg width="32" height="32" viewBox="0 0 32 32" fill="none" xmlns="http://www.w3.org/2000/svg">
<rect width="32" height="32" rx="1.10345" fill="url(#paint0_linear_16_1250)"/>
<circle cx="6.40076" cy="10.593" r="1.98621" fill="white"/>
<circle cx="25.6" cy="10.5931" r="1.98621" fill="white"/>
<path fill-rule="evenodd" clip-rule="evenodd" d="M27.4897 17.1999C27.6802 17.512 27.5816 17.9194 27.2694 18.1099C23.8414 20.2015 20.413 20.285 17.8622 19.8527C16.5877 19.6367 15.526 19.2912 14.7811 18.9991C14.4082 18.8528 14.1133 18.7193 13.9092 18.6211C13.8071 18.5719 13.7277 18.5316 13.6724 18.5028C13.6448 18.4883 13.6232 18.4768 13.6078 18.4685C13.6002 18.4644 13.5941 18.461 13.5895 18.4585L13.5839 18.4554L13.582 18.4544L13.5813 18.454C13.581 18.4538 13.5807 18.4536 13.9004 17.8821L13.5807 18.4536C13.2616 18.2752 13.1476 17.8718 13.3261 17.5526C13.5044 17.2338 13.9073 17.1197 14.2263 17.2975L14.2277 17.2984L14.2377 17.3038C14.2474 17.309 14.2631 17.3174 14.2848 17.3287C14.3281 17.3513 14.3948 17.3853 14.4835 17.428C14.6609 17.5134 14.9255 17.6333 15.2646 17.7664C15.9438 18.0328 16.9167 18.3494 18.0835 18.5472C20.4155 18.9424 23.4974 18.8603 26.5797 16.9795C26.8919 16.7891 27.2993 16.8877 27.4897 17.1999Z" fill="white"/>
<defs>
<linearGradient id="paint0_linear_16_1250" x1="16" y1="0" x2="16" y2="32" gradientUnits="userSpaceOnUse">
<stop stop-color="#0971E6"/>
<stop offset="1" stop-color="#6BABF3"/>
</linearGradient>
</defs>
</svg>
