<svg width="22" height="22" viewBox="0 0 22 22" fill="none" xmlns="http://www.w3.org/2000/svg">
<path fill-rule="evenodd" clip-rule="evenodd" d="M16.5 9C16.5 13.1421 13.1421 16.5 8.99998 16.5C4.85785 16.5 1.5 13.1421 1.5 9C1.5 4.85786 4.85785 1.5 8.99998 1.5C13.1421 1.5 16.5 4.85786 16.5 9ZM14.8116 15.8723C13.2436 17.1996 11.2152 18 8.99998 18C4.02943 18 0 13.9706 0 9C0 4.02944 4.02943 0 8.99998 0C13.9705 0 18 4.02944 18 9C18 11.2153 17.1996 13.2436 15.8722 14.8116L21.5303 20.4697L20.4696 21.5303L14.8116 15.8723Z" fill="white"/>
</svg>
